<svg width="43" height="48" viewBox="0 0 43 48" fill="none" xmlns="http://www.w3.org/2000/svg">
<g id="icon_&#237;&#153;&#149;&#236;&#160;&#149;&#236;&#151;&#172;&#237;&#150;&#137;">
<g id="&#8;icon">
<g id="Vector" filter="url(#filter0_d_1468_2894)">
<path d="M21.1884 42C19.9906 42 18.8068 41.6007 17.8526 40.8729C16.5683 39.8951 13.2576 37.2321 10.2472 33.651C6.10179 28.7196 4 23.8542 4 19.1884C4 9.71075 11.7107 2 21.1884 2C30.6661 2 38.3769 9.71075 38.3769 19.1884C38.3769 23.8542 36.2751 28.7196 32.1281 33.6526C29.1177 37.2336 25.807 39.8966 24.5227 40.8744C23.5701 41.6007 22.3863 42 21.1884 42Z" fill="white"/>
</g>
<path id="Vector_2" d="M21.1897 6.71729C28.0783 6.71729 33.6621 12.3011 33.6621 19.1897C33.6621 27.4931 23.9486 35.3846 21.666 37.1248C21.3846 37.3402 20.9947 37.3402 20.7134 37.1248C18.4308 35.3846 8.71729 27.4946 8.71729 19.1897C8.71729 12.3011 14.3011 6.71729 21.1897 6.71729Z" fill="#FE8101"/>
<path id="Vector_3" d="M21.1873 25.1926C24.9319 25.1926 27.9675 22.157 27.9675 18.4124C27.9675 14.6679 24.9319 11.6323 21.1873 11.6323C17.4428 11.6323 14.4072 14.6679 14.4072 18.4124C14.4072 22.157 17.4428 25.1926 21.1873 25.1926Z" fill="white"/>
</g>
</g>
<defs>
<filter id="filter0_d_1468_2894" x="0" y="0" width="42.3768" height="48" filterUnits="userSpaceOnUse" color-interpolation-filters="sRGB">
<feFlood flood-opacity="0" result="BackgroundImageFix"/>
<feColorMatrix in="SourceAlpha" type="matrix" values="0 0 0 0 0 0 0 0 0 0 0 0 0 0 0 0 0 0 127 0" result="hardAlpha"/>
<feOffset dy="2"/>
<feGaussianBlur stdDeviation="2"/>
<feComposite in2="hardAlpha" operator="out"/>
<feColorMatrix type="matrix" values="0 0 0 0 0 0 0 0 0 0 0 0 0 0 0 0 0 0 0.25 0"/>
<feBlend mode="normal" in2="BackgroundImageFix" result="effect1_dropShadow_1468_2894"/>
<feBlend mode="normal" in="SourceGraphic" in2="effect1_dropShadow_1468_2894" result="shape"/>
</filter>
</defs>
</svg>
